<?xml version="1.0" standalone="no"?>
<!DOCTYPE svg PUBLIC "-//W3C//DTD SVG 20010904//EN"
 "http://www.w3.org/TR/2001/REC-SVG-20010904/DTD/svg10.dtd">
<svg version="1.0" xmlns="http://www.w3.org/2000/svg"
 width="16.000000pt" height="16.000000pt" viewBox="0 0 16.000000 16.000000"
 preserveAspectRatio="xMidYMid meet">
<metadata>
Created by potrace 1.11, written by Peter Selinger 2001-2013
</metadata>
<g transform="translate(0.000000,16.000000) scale(0.003125,-0.003125)"
fill="#000000" stroke="none">
<path d="M976 4410 c-89 -107 -89 -433 0 -540 l26 -30 519 0 519 0 0 -1559 0
-1560 26 -20 c15 -12 56 -30 91 -41 57 -17 93 -20 283 -20 190 0 226 3 283 20
35 11 76 29 91 41 l26 20 0 1560 0 1559 519 0 519 0 26 30 c89 107 89 433 0
540 l-26 30 -1438 0 -1438 0 -26 -30z"/>
</g>
</svg>
